<?xml version="1.0" encoding="UTF-8"?>
<svg xmlns="http://www.w3.org/2000/svg" version="1.1" xmlns:xlink="http://www.w3.org/1999/xlink" viewBox="0 0 950 1284.38">
  <defs>
    <style>
      .cls-1 {
        fill: #fff;
      }

      .cls-1, .cls-2, .cls-3 {
        fill-rule: evenodd;
      }

      .cls-4 {
        fill: none;
      }

      .cls-2 {
        fill: #85c226;
      }

      .cls-3 {
        fill: #5e5245;
      }

      .cls-5 {
        clip-path: url(#clippath);
      }
    </style>
    <clipPath id="clippath">
      <rect class="cls-4" x="-2009.16" y="-815.77" width="4986.83" height="3526.04"/>
    </clipPath>
  </defs>
  <!-- Generator: Adobe Illustrator 28.6.0, SVG Export Plug-In . SVG Version: 1.2.0 Build 709)  -->
  <g>
    <g id="Layer_1">
      <g class="cls-5">
        <path class="cls-3" d="M76.66,689c18.24,53.66,37.36,103.2,52.43,144.61,45.47,124.98,51.84,340.45,145.78,423.75,97.67,86.62,60.09-339.81,210.39-344.8,150.31,4.99,112.73,431.42,210.4,344.8,93.93-83.3,100.31-298.77,145.78-423.75,15.06-41.41,34.19-90.95,52.43-144.61-1.65-.96-3.22-2.04-4.7-3.24-7.78,3.28-16.56,3.91-24.94,1.56l-8.56-2.39-1.35-5.34c-8.19,1.18-16.67-.34-24.09-4.55l-6.52-3.7c-11.35,5.89-24.92,5.64-36.08-.69l-7.73-4.39-.05-8.8c-1.43-.66-2.82-1.43-4.15-2.31-4.68,2.86-10.13,4.47-15.82,4.51-5.29.03-10.39-1.3-14.87-3.74-2.74-1.04-5.34-2.46-7.71-4.26-3.44,1.21-7.04,1.79-10.62,1.75-8.89,1.86-18.3.47-26.43-4.14l-7.73-4.38v-1.06c-4.61-.53-9.15-1.92-13.37-4.15-2.98-.05-5.98-.45-8.93-1.21-.9-.24-1.78-.5-2.65-.8-10.17,3.51-21.47,2.54-31.01-2.88l-7.73-4.38-.02-3.04c-9.3,2.88-19.55,1.15-27.39-4.67-3.93,3.33-8.54,5.87-13.56,7.37l-1.67.5-2.49.75-1.97.6-5.63-3.06-12.12-6.59-1.15-.62-3.62-1.97c-37.69-20.43-38.55-36.55-46.15-77.84-.03.01-13.17,81.32-16.96,75.82-14.87-21.58-26.58-91.9-32.41-14.88-.15-.04-3.24,1.74-3.39,1.69l-5.38-.43c2.03-23.98,2.8-47.21,2.59-62.2-7.6,41.29-8.47,57.41-46.15,77.84l-3.63,1.97-1.15.62-12.12,6.59-5.62,3.06-1.98-.6-2.48-.75-1.67-.5c-5.03-1.5-9.63-4.04-13.56-7.37-7.85,5.82-18.09,7.55-27.39,4.67v3.04s-7.74,4.38-7.74,4.38c-9.54,5.42-20.84,6.39-31.01,2.88-.87.29-1.76.56-2.65.8-2.95.77-5.95,1.17-8.93,1.21-4.22,2.23-8.75,3.62-13.36,4.15v1.06s-7.74,4.38-7.74,4.38c-8.13,4.62-17.53,6-26.43,4.14-3.57.05-7.17-.53-10.62-1.75-2.37,1.79-4.97,3.22-7.72,4.26-4.48,2.44-9.58,3.77-14.87,3.74-5.69-.03-11.14-1.64-15.82-4.51-1.33.88-2.72,1.65-4.16,2.31l-.05,8.8-7.73,4.39c-11.16,6.33-24.73,6.58-36.08.69l-6.52,3.7c-7.42,4.21-15.9,5.73-24.09,4.55l-1.35,5.34-8.56,2.39c-8.38,2.35-17.16,1.72-24.94-1.56-1.49,1.2-3.06,2.28-4.7,3.24"/>
        <path class="cls-2" d="M455.28,164.74c-3.52.83-7.51-.46-10.92.49-2.17.61-2.13,1.46-4.91,1.46-.63,0-10.81.66-8.02-.98,3.21-1.89,7.83-2.31,10.48-4.88.58-.56,2.19-.08,3.12-.24,1.1-.2,2.09-1.33,1.1-1.54,2.96.38,19.59,3.22,9.15,5.69M446.13,159.06c-.13-.02-.23-.03-.3-.04.11.01.21.02.3.04ZM404.45,238.68c-2.13-.53-6.54-5.06-8.88-8.11,7.41,4.11-.72-.45,4.88.35,3.16.45,9.1,6.05,11.11,8.25,1.33,1.45,2.7,3.86,4,4.85,3.5,2.66-.73,1.87-1.78.97-1.74-1.49-2.46-1.83-4.45-2.91-1.96-1.06-2.44-2.78-4.89-3.4ZM419.12,196.47c-3.63-2.64-1.83-.16-5.34-5.08,5.21.52,9.51-.98,12.45,3.63.56.88,2.52,2.59,3.11,3.88.15.32.58,4.85,0,5.34-.47.4-5.09-3.71-5.33-3.88-1.66-1.19-3.26-2.7-4.89-3.88ZM104.28,288.02c3.57.5,5.82,4.16,8.02,5.83,3.78,2.87,2.04,14.94-1.78,17.51-1.88,1.27-7.98,5.52-10.69,3.89-7.77-4.68-6.24-14.82-6.24-23.35,0-2.64-1.27-7.15,1.78-6.8,3.72.41,5.72,2.55,7.27,5.61.49-2.2.6-3.23.61-3.64.06.31.28.84,1.02.95ZM98.3,361.06c3.15,9.37,1.9,7.39,3.31,15.47,1.12,6.44,4.51,11.15-6.24,6.8-.93-.38-4.21-3.34-5.35-3.89-6.38-3.09-9.8-13.79-9.8-21.4,0-1.15-.45-8.04,0-8.75,1.41-2.22,12.72-.75,14.26,0,1.46.71,2.81,3.85,3.56,4.86,1.33,1.79,1.08,3.83.25,6.91ZM103.26,287.08,88.25,471.83c3.39,0,7.78-.06,8.02,3.89.3,5.05.11,8.41-2.67,12.64-1.64,2.49-4.32,6.92-6.24,10.7-.81,1.6-2.11,4.27-3.56,4.87-2.84,1.15-4.89-4.33-6.24-6.81-1.2-2.22-3.87-5.37-4.45-7.77-2.03-8.42,3.9,3.67-.36-7.7.74.23.72,2.54,2.14,4.77.95,1.49,2.04.98,3.56.98,3.49,0,4.12-.95,5.35-2.92,2.46-3.93-1.86-12.64,4.46-12.64ZM184.26,225.4c1.34,4.58.5,13.87-.67,15.94-4.33,7.69-18.77-9.13-21.39-12.65-5.52-7.41-17.31-34.36-12.47-42.79,2.96-5.17,8.08,14.8,9.8,18.48,1.66,3.53,3.77,5.64,5.35,8.75,1.26,2.5,1.24,4.59,1.7,6.42.5-.19,1.12-.38,1.86-.58,5.06-1.35,16.91-1.52,16.04,5.83-.03.27-.11.46-.22.59ZM341.32,161.54c-1.05-1.15-1.02-2.27-1.78-3.4-1.63-2.42-1.82-1.83-1.8-1.42-.1-.5-.42-1.89-1.35-5.14.08-1.78-.49-2.18,1.37-2.18h2.22c1.62,0,.14-.18,1.33.97,1.49,1.43,3.65,4.05,4,6.79.25,1.93,0,4.34,0,6.31s-.38,1.36-1.33.49c-.75-.69-1.83-1.52-2.67-2.43ZM337.75,156.73,361.47,359.27c5-3.23,11.39-3.56,16.82-.23,5.43,3.33,8.52,9.43,8.6,15.77-4.99,3.24-11.38,3.55-16.82.23-5.43-3.31-8.52-9.44-8.6-15.77ZM120.4,404.88c4.47,1.48,5.95,2.67,6.73,4.33-2.48-1.37-4.79-2.83-6.73-4.33ZM176.46,278.3c0,17.91,3.9,29.66-12.48,34.04-8.53,2.29-10.36-3.48-10.69-11.67-.05-1.38-.15-2.4-.23-3.2,2.23-.71,6.01-3.79,8.25-5.56,2-1.58,6.27-3.19,8.02-5.83,2.63-3.98,7.13-24.91,7.13-7.78ZM177.69,313.93c.81,1.26,6.76,13.68-.03,17.89-9.71,6-6.87-18.84-4.49-19.52.57-.16,4.19,1.1,4.53,1.63ZM127.14,409.21c4.77,2.63,10.15,4.88,14.57,6.21,2.32.69,10.17,3.47,12.47,3.89,5.98,1.09,13.37-3.67,13.37,4.86,0,9.53-2.62,7.98-9.8,2.92-4.55-3.21-5.01-4.86-9.8-4.86-5.91,0-1,11.53-10.69,4.86-1.51-1.04-6.12-7.87-7.13-9.73-2.14-3.95-2.14-6.33-2.99-8.16ZM294.97,410.56c3.02-2.35,4.48-3.71,6.57-7.06,1.4,4.4,4.15,3.45,5.02,5.12.45.87,0,4.58,0,5.83v9.72c0,3.09-.89.39-.89,1.94v.98c0,1.61-6.28-2.18-8.02-2.92-3.3-1.42-2.67-6.57-2.67-10.7,0-.97-.73-2.35,0-2.92ZM267.76,253.18c12.18-5.37,31.56,10.46,36.13,19.29.64,1.24,4.27,20.65,0,16.53-5.95-5.74-11.09-10.49-16.93-16.53-5.58-5.77-12.81-11.41-17.82-17.5-.6-.72-1.03-1.31-1.38-1.78ZM191.61,454.32c1.95-4.27,6.82-4.58,9.8-5.83,6.24-2.62,5.73,7.18,4.46,11.67-.54,1.9-.33,8.72-.89,9.72-1.11,1.98-12.06.98-14.26.98-10.56,0-10,2.99-18.12-1.14,1.05-.86,1.99-1.65,2.08-1.78.51-.69,5.19-2.4,6.24-2.92,7.3-3.56,7.53-3.78,10.69-10.7ZM172.6,469.72c-2.33,1.9-5.18,4.07-.38-.2.13.07.25.13.38.2ZM82.24,579.86c-5.17,2.89-10.39,3.5-15.93,5.58-7.48,2.82-4.15-6.36-5.96-11.12,3.67-1.9,10.58-6.69,15.06-4.4,6.04,3.09,7.29,7.52,13.08,3.11,1.17-.89,3.19-3.5,3.42-.62.37,4.93-6.67,5.76-9.67,7.45ZM306.27,511.83c7.02,4.57,11.57,10.9,17.97,16.53,8.64,7.62-3.84,10.14-7.7,16.05-4.8-3.36-15.18-8.76-16.02-16.31-1.13-10.16,2.77-15.07-6.37-19.32-1.85-.86-6.2-1.54-3.22-3.97,5.11-4.17,11.26,4.37,15.33,7.02ZM393.41,517.57c-5.17,2.89-10.39,3.5-15.92,5.59-7.48,2.82-4.16-6.36-5.97-11.13,3.67-1.89,10.58-6.69,15.07-4.39,6.04,3.09,7.29,7.51,13.09,3.1,1.17-.89,3.19-3.5,3.41-.62.37,4.93-6.66,5.77-9.67,7.45ZM221.79,415.48c-6.24,3.49-12.54,4.22-19.22,6.74-9.03,3.4-5.01-7.66-7.2-13.43,4.43-2.29,12.77-8.07,18.18-5.3,7.29,3.73,8.79,9.06,15.79,3.74,1.41-1.07,3.86-4.23,4.12-.75.45,5.95-8.04,6.95-11.67,8.99ZM240.81,268.51c-6.24,3.49-12.54,4.23-19.22,6.74-9.02,3.4-5.01-7.67-7.2-13.42,4.43-2.29,12.77-8.08,18.18-5.3,7.29,3.73,8.79,9.06,15.79,3.75,1.41-1.08,3.86-4.23,4.12-.75.45,5.95-8.04,6.96-11.67,8.99ZM217.28,130.91c5.74,4.18-4.05,6.78-5.05,8.78-3.32,6.62,5.03,6.51,8.02,8.78,2.89,2.19-9.82,9.34-10.99,10.08-1.16.74-.89,4.12-.89,5.52,0,6.74-10.05,1.48-13.08,0-1.24-.6-.6-3.46-.6-5.2,0-6.31,10.13-3.92,7.13-8.46-2.08-3.14-6.75-3.24-9.8-3.9-14.31-3.1,7.71-8.16,11.88-11.05,2.72-1.88,13.67-11.9,13.37-4.55ZM264.23,130.26c-2.13,0-3.86,6.7-3.86,14.95s1.73,14.96,3.86,14.96,3.86-6.7,3.86-14.96-1.73-14.95-3.86-14.95ZM513.22,164.74c3.52.83,7.51-.46,10.92.49,2.17.61,2.13,1.46,4.91,1.46.63,0,10.81.66,8.02-.98-3.2-1.89-7.83-2.31-10.48-4.88-.58-.56-2.19-.08-3.12-.24-1.1-.2-2.09-1.33-1.1-1.54-2.96.38-19.59,3.22-9.15,5.69ZM522.37,159.06c.13-.02.23-.03.3-.04-.11.01-.21.02-.3.04ZM564.05,238.68c2.13-.53,6.54-5.06,8.88-8.11-7.41,4.11.73-.45-4.88.35-3.16.45-9.1,6.05-11.12,8.25-1.33,1.45-2.69,3.86-4,4.85-3.5,2.66.74,1.87,1.78.97,1.74-1.49,2.46-1.83,4.45-2.91,1.96-1.06,2.44-2.78,4.89-3.4ZM549.38,196.47c3.63-2.64,1.82-.16,5.34-5.08-5.22.52-9.51-.98-12.45,3.63-.56.88-2.52,2.59-3.11,3.88-.15.32-.58,4.85,0,5.34.47.4,5.09-3.71,5.33-3.88,1.66-1.19,3.26-2.7,4.89-3.88ZM864.22,288.02c-3.57.5-5.82,4.16-8.02,5.83-3.78,2.87-2.04,14.94,1.78,17.51,1.88,1.27,7.98,5.52,10.69,3.89,7.77-4.68,6.24-14.82,6.24-23.35,0-2.64,1.27-7.15-1.78-6.8-3.71.41-5.72,2.55-7.27,5.61-.49-2.2-.6-3.23-.61-3.64-.06.31-.28.84-1.02.95ZM870.2,361.06c-3.14,9.37-1.9,7.39-3.31,15.47-1.12,6.44-4.51,11.15,6.24,6.8.92-.38,4.21-3.34,5.35-3.89,6.38-3.09,9.8-13.79,9.8-21.4,0-1.15.45-8.04,0-8.75-1.41-2.22-12.72-.75-14.26,0-1.46.71-2.81,3.85-3.57,4.86-1.33,1.79-1.08,3.83-.25,6.91ZM865.24,287.08,880.25,471.83c-3.4,0-7.79-.06-8.02,3.89-.3,5.05-.1,8.41,2.67,12.64,1.65,2.49,4.32,6.92,6.24,10.7.81,1.6,2.11,4.27,3.57,4.87,2.84,1.15,4.89-4.33,6.24-6.81,1.2-2.22,3.87-5.37,4.45-7.77,2.03-8.42-3.9,3.67.36-7.7-.74.23-.72,2.54-2.14,4.77-.95,1.49-2.04.98-3.56.98-3.49,0-4.12-.95-5.34-2.92-2.47-3.93,1.86-12.64-4.46-12.64ZM784.24,225.4c-1.34,4.58-.5,13.87.67,15.94,4.33,7.69,18.78-9.13,21.39-12.65,5.52-7.41,17.31-34.36,12.47-42.79-2.96-5.17-8.08,14.8-9.8,18.48-1.66,3.53-3.77,5.64-5.34,8.75-1.26,2.5-1.24,4.59-1.7,6.42-.51-.19-1.12-.38-1.86-.58-5.06-1.35-16.91-1.52-16.04,5.83.03.27.11.46.22.59ZM627.18,161.54c1.05-1.15,1.02-2.27,1.78-3.4,1.63-2.42,1.82-1.83,1.8-1.42.1-.5.42-1.89,1.36-5.14-.08-1.78.49-2.18-1.37-2.18h-2.22c-1.62,0-.15-.18-1.33.97-1.49,1.43-3.65,4.05-4,6.79-.25,1.93,0,4.34,0,6.31s.38,1.36,1.33.49c.75-.69,1.83-1.52,2.67-2.43ZM630.76,156.73,607.03,359.27c-5-3.23-11.39-3.56-16.82-.23-5.43,3.33-8.52,9.43-8.6,15.77,4.99,3.24,11.38,3.55,16.82.23,5.43-3.31,8.52-9.44,8.6-15.77ZM848.1,404.88c-4.47,1.48-5.95,2.67-6.73,4.33,2.48-1.37,4.79-2.83,6.73-4.33ZM792.04,278.3c0,17.91-3.9,29.66,12.48,34.04,8.53,2.29,10.37-3.48,10.69-11.67.05-1.38.15-2.4.23-3.2-2.23-.71-6.01-3.79-8.25-5.56-2-1.58-6.27-3.19-8.02-5.83-2.63-3.98-7.13-24.91-7.13-7.78ZM790.81,313.93c-.8,1.26-6.76,13.68.04,17.89,9.71,6,6.87-18.84,4.5-19.52-.58-.16-4.19,1.1-4.53,1.63ZM841.37,409.21c-4.77,2.63-10.15,4.88-14.57,6.21-2.32.69-10.17,3.47-12.47,3.89-5.98,1.09-13.37-3.67-13.37,4.86,0,9.53,2.62,7.98,9.8,2.92,4.54-3.21,5.01-4.86,9.8-4.86,5.91,0,1,11.53,10.69,4.86,1.51-1.04,6.12-7.87,7.13-9.73,2.14-3.95,2.14-6.33,2.99-8.16ZM673.53,410.56c-3.02-2.35-4.49-3.71-6.57-7.06-1.4,4.4-4.15,3.45-5.01,5.12-.45.87,0,4.58,0,5.83v9.72c0,3.09.89.39.89,1.94v.98c0,1.61,6.28-2.18,8.02-2.92,3.3-1.42,2.67-6.57,2.67-10.7,0-.97.72-2.35,0-2.92ZM700.75,253.18c-12.18-5.37-31.56,10.46-36.13,19.29-.64,1.24-4.26,20.65,0,16.53,5.95-5.74,11.1-10.49,16.93-16.53,5.58-5.77,12.81-11.41,17.82-17.5.6-.72,1.04-1.31,1.38-1.78ZM776.89,454.32c-1.96-4.27-6.82-4.58-9.8-5.83-6.24-2.62-5.72,7.18-4.45,11.67.54,1.9.32,8.72.89,9.72,1.11,1.98,12.06.98,14.26.98,10.56,0,10,2.99,18.12-1.14-1.04-.86-1.99-1.65-2.08-1.78-.51-.69-5.19-2.4-6.24-2.92-7.3-3.56-7.53-3.78-10.69-10.7ZM795.9,469.72c2.33,1.9,5.18,4.07.38-.2-.13.07-.25.13-.38.2ZM886.26,579.86c5.18,2.89,10.39,3.5,15.93,5.58,7.48,2.82,4.15-6.36,5.96-11.12-3.67-1.9-10.58-6.69-15.06-4.4-6.04,3.09-7.29,7.52-13.09,3.11-1.17-.89-3.19-3.5-3.41-.62-.37,4.93,6.66,5.76,9.67,7.45ZM484.25,302.94c1.73-2.79,3.32-5.69,4.67-7.49.88-1.17.84-1.67.52-1.85.47-.11,1.12-.28,1.98-.53-1.04.21-2.75.17-3.83.44-1.06.27-1.95.97-3.11.97h-.46c-1.16,0-2.05-.71-3.11-.97-1.08-.27-2.79-.23-3.83-.44.86.25,1.5.42,1.98.53-.32.18-.36.68.52,1.85,1.35,1.79,2.95,4.7,4.67,7.49ZM718.92,574.79c1.25.7,2.5,1.27,3.76,1.75-.51.02-1.03.02-1.55.02-9.75,2.22-20.07.57-28.99-4.96l-8.47-5.25v-1.28c-5.06-.64-10.04-2.29-14.67-4.96-3.26-.06-6.55-.53-9.79-1.46-.99-.28-1.96-.6-2.91-.95-11.15,4.2-23.55,3.05-34.02-3.44l-8.47-5.25-.02-3.64c-10.2,3.45-21.44,1.37-30.04-5.6-4.31,3.99-9.37,7.02-14.88,8.83l-1.83.6-2.73.89-2.17.71-6.17-3.66-13.29-7.9-1.26-.75-3.98-2.36c-41.34-24.46-42.29-43.75-50.62-93.17,0,0-1.02,6.79-2.58,16.66-1.56-9.87-2.57-16.66-2.58-16.66-8.34,49.42-9.29,68.71-50.62,93.17l-3.98,2.36-1.26.75-13.29,7.9-6.17,3.66-2.17-.71-2.72-.89-1.84-.6c-5.51-1.8-10.57-4.84-14.88-8.83-8.6,6.96-19.85,9.05-30.04,5.6l-.02,3.64-8.48,5.25c-10.46,6.48-22.86,7.64-34.02,3.44-.95.35-1.92.67-2.91.95-3.24.93-6.53,1.4-9.79,1.46-4.63,2.67-9.6,4.33-14.66,4.96v1.28s-8.48,5.25-8.48,5.25c-8.92,5.52-19.23,7.18-28.99,4.96-.52,0-1.03,0-1.55-.02,1.26-.49,2.51-1.05,3.77-1.75,3.01-1.68,10.04-2.52,9.67-7.44-.22-2.88-2.24-.27-3.41.62-5.8,4.41-7.05-.01-13.08-3.11-4.48-2.29-11.39,2.5-15.07,4.4,1.06,2.8.36,7.11,1.11,9.64-.51.24-1.02.46-1.54.68-4.92,2.92-10.5,4.51-16.31,4.47-6.25-.05-12.22-1.97-17.36-5.4-1.46,1.05-2.98,1.97-4.56,2.75l-.05,10.54-8.48,5.25c-12.25,7.59-27.13,7.88-39.57.83l-7.15,4.43c-8.14,5.04-17.45,6.86-26.43,5.44l-1.48,6.4-9.39,2.87c-2.46.75-4.94,1.25-7.42,1.5-2.71.01-5.2.02-7.44.02-4.3-.41-8.52-1.56-12.5-3.38-.92.81-1.87,1.58-2.85,2.3-9.42-3.32-11.3-13.55-12.78-19.35-4.34-17.09-2.86-46.63-6.9-71.42-1.46-8.97-4.62-14.42-10.15-21.24-14.07-17.36,10.51-66,3.65-55.21-15.32,24.1-15.11-34.18-15.11-38.85,0-32.6,18.71,1.9,18.71-.97,20.58-8.64-4.01-24.4-10.69-29.17-18.11-12.95,7.73-8.1,6.24-16.53-9.92-56.31,2.67,11.75,2.67-55.43,0-18.73-6.46-33.94,6.24-6.81,5.95,12.73,1.93-54.46,4.45-67.1,5.89-29.58,11.03,23.94,19.6-2.92,7.77-24.32,12.52-61.96,24.73-72.98,15.5-13.99,14.4,34.98,14.85,17.26.31-11.99,1.36-25.05,3.7-38.03.9-4.99,6.87-4,8.18-8.91,1.02-3.81,5.43-18.45,6.72-22.14,8.64-24.47,22.41-32.01,46.34-39.49,22.04-6.88,44.12-8.32,69.31-.35,7.14,2.26,16.58,9.28,23.95,12.25,9.48,3.82,15.38-2.18,25.24,2.41,8.06,3.74,21.66,19.62,29.95,23.6,7.92,3.79,10.54-4.3,18.68-.52,14.95,6.96,16.27,4.12,41.02,13.11,12.34,4.49,7.98,17.16,13.67,19.01,8.31,2.71,24.87-1.38,33.36.64,17.11,4.06,34.57,6.48,52.34,6.48s35.23-2.43,52.34-6.48c8.49-2.01,25.05,2.08,33.36-.64,5.68-1.86,1.33-14.52,13.67-19.01,24.75-9,26.07-6.15,41.02-13.11,8.13-3.79,10.75,4.31,18.68.52,8.3-3.98,21.9-19.86,29.95-23.6,9.86-4.59,15.75,1.41,25.24-2.41,7.38-2.97,16.81-10,23.95-12.25,25.19-7.98,47.27-6.54,69.31.35,23.94,7.48,37.71,15.02,46.34,39.49,1.3,3.69,5.71,18.33,6.72,22.14,1.31,4.91,7.28,3.92,8.18,8.91,2.33,12.98,3.39,26.04,3.7,38.03.45,17.72-.65-31.25,14.85-17.26,12.21,11.03,16.97,48.66,24.74,72.98,8.57,26.86,13.71-26.66,19.6,2.92,2.52,12.64-1.5,79.83,4.45,67.1,12.69-27.14,6.24-11.92,6.24,6.81,0,67.19,12.6-.87,2.67,55.43-1.49,8.43,24.35,3.59,6.24,16.53-6.68,4.77-31.28,20.54-10.69,29.17,0,2.88,18.71-31.62,18.71.97,0,4.68.21,62.95-15.12,38.85-6.86-10.79,17.72,37.85,3.65,55.21-5.53,6.82-8.69,12.27-10.15,21.24-4.04,24.79-2.56,54.33-6.9,71.42-1.48,5.8-3.36,16.03-12.78,19.35-.98-.72-1.93-1.49-2.85-2.3-3.98,1.83-8.2,2.97-12.5,3.38-2.23,0-4.73,0-7.44-.02-2.49-.25-4.97-.75-7.42-1.5l-9.39-2.87-1.48-6.4c-8.98,1.42-18.29-.4-26.43-5.44l-7.15-4.43c-12.45,7.05-27.33,6.76-39.57-.83l-8.48-5.25-.05-10.54c-1.57-.79-3.09-1.7-4.55-2.75-5.14,3.42-11.11,5.35-17.36,5.4-5.8.03-11.39-1.56-16.31-4.47-.52-.22-1.03-.44-1.54-.68.75-2.52.04-6.84,1.1-9.64-3.67-1.9-10.58-6.69-15.07-4.4-6.04,3.09-7.28,7.51-13.08,3.11-1.17-.89-3.19-3.5-3.42-.62-.37,4.93,6.67,5.76,9.67,7.44ZM662.23,511.83c-7.02,4.57-11.57,10.9-17.97,16.53-8.65,7.62,3.84,10.14,7.69,16.05,4.8-3.36,15.18-8.76,16.02-16.31,1.13-10.16-2.77-15.07,6.36-19.32,1.85-.86,6.2-1.54,3.22-3.97-5.11-4.17-11.26,4.37-15.33,7.02ZM575.09,517.57c5.18,2.89,10.39,3.5,15.93,5.59,7.48,2.82,4.15-6.36,5.97-11.13-3.67-1.89-10.58-6.69-15.07-4.39-6.04,3.09-7.29,7.51-13.08,3.1-1.17-.89-3.2-3.5-3.41-.62-.37,4.93,6.66,5.77,9.67,7.45ZM746.71,415.48c6.25,3.49,12.54,4.22,19.22,6.74,9.02,3.4,5.01-7.66,7.2-13.43-4.43-2.29-12.77-8.07-18.18-5.3-7.29,3.73-8.79,9.06-15.79,3.74-1.41-1.07-3.86-4.23-4.12-.75-.45,5.95,8.04,6.95,11.67,8.99ZM727.69,268.51c6.25,3.49,12.54,4.23,19.22,6.74,9.02,3.4,5.01-7.67,7.2-13.42-4.43-2.29-12.77-8.08-18.18-5.3-7.29,3.73-8.79,9.06-15.79,3.75-1.41-1.08-3.86-4.23-4.12-.75-.45,5.95,8.04,6.96,11.67,8.99ZM751.22,130.91c-5.74,4.18,4.06,6.78,5.05,8.78,3.32,6.62-5.03,6.51-8.02,8.78-2.89,2.19,9.83,9.34,11,10.08,1.16.74.89,4.12.89,5.52,0,6.74,10.05,1.48,13.08,0,1.24-.6.6-3.46.6-5.2,0-6.31-10.13-3.92-7.13-8.46,2.08-3.14,6.75-3.24,9.81-3.9,14.31-3.1-7.71-8.16-11.89-11.05-2.72-1.88-13.67-11.9-13.37-4.55ZM704.27,130.26c2.13,0,3.86,6.7,3.86,14.95s-1.73,14.96-3.86,14.96-3.86-6.7-3.86-14.96,1.73-14.95,3.86-14.95ZM815.21,559.35c-1.46.19-8.2,3.3-11.12,5.83h-17.39c-6.95,0-6.71-.46-7.13,0-2.77,3.02,1.67,8.69,3.56,9.73,1.87,1.02,3.66,1.97,5.44,2.85,6.04,2.96,11.88,4.93,19.51,4.93h10.69c9.28,0,8.91,1.56,8.91-9.72s-1.18-15.03-12.47-13.62ZM153.29,559.35c1.46.19,8.21,3.3,11.12,5.83h17.39c6.95,0,6.71-.46,7.13,0,2.77,3.02-1.67,8.69-3.56,9.73-1.87,1.02-3.66,1.97-5.44,2.85-6.04,2.96-11.88,4.93-19.51,4.93h-10.69c-9.28,0-8.91,1.56-8.91-9.72s1.18-15.03,12.47-13.62Z"/>
        <path class="cls-1" d="M514.81,542.71c1.97-37.13,20.95-43.71,57.46-46.81,10.79-.92,20.96-19.42,36.66-24.71,25.32-8.54,57.56-4.29,74,2.15,7.09,2.77-17.68-10.05-10.68-10.34,10.93-.46,45.29,16.72,50.7,21.93,19.46,18.74,29.62,30.31,45.31,34.91,3.17.93-40.05-29.41-35.08-36.48.71-1.01,5.79.53,8.58.53,3.58,0,117.7,41.76,122.43,41.98,1.58.08-81.08-42.63-151.23-57.23-10.09-4.81-21.95-9.2-18.36-10.3,10.4-3.17,81.79-8.72,76.68-10.23-9.78-2.88-93.58,1.53-122.2,4.63-4.5.5-21.26-.86-40.04,4.44-31.3,8.83-68.23,25.3-63.49,20.17,4.75-5.16,6.41-14.06,9.32-17.75,13.47-5.01,26.94-16.28,33.79-21.88,3.79-3.1,14.08-17.98,25.6-25.24,17.97-11.32,38.87-15.85,42.26-18.54,3-2.39,20.8-1.09,26.44-2.31,11.68-2.51,22.35-4.43,30.59-1.83,20.9,6.58,129.3-3.87,125.71-4.74-4.62-1.12-71.71-.78-83.86-.78-29.56,0-37.44-1.57-34.05-5.71,8.57-10.42,51.29-26.05,62.26-29.66-13.65,1.65-27.91.44-70.68,28.04-4.1,2.65-17.26,4.2-20.92,5.51-9.69,2.38-26.12,3.31-25.21-.78,2.51-11.28,48.36-35.62,62.44-43.66-23.8,2.61-50.34,20.77-72.53,40.22-2.6,2.29-26.49,6.88-46.25,17.06-15.37,7.93-27.63,21.88-29.4,23.8-4.11,4.43-9.55,6.07-13.3,10.38-5.38,6.19-17.04,8.21-21.92,13.36-21.69,22.87-37.18,36.74-36.61,19.85-3.51-26.33-9.01-58.05-8.51-82.29.06-2.98,23.72-1.46,42.53-12.19,8.97-5.12,16.08-17.99,26.2-24.97,1.17-.81,15.07-15.91,36.37-16.34,22.88-.47,33.05-14.19,60.82-13.71,9.3.16,16.38-8.01,17.83-8.82,2-1.12-14.98,4.39-25.96,4.14-11.68-.26-50.74,10.89-48.87,9.69,1.35-.87,6.88-10.84,18.87-14.25,19.83-5.63,47.93-15.22,57.87-21.32,35.45-21.75,75.19-54.7,73.85-56.35-1.31-1.6-43.15,29.1-77.97,49.3-12.59,7.31-26.6,8.91-34.15,13.22-1.21.69,14.04-13.04,24.37-29.48,13.71-21.83,12.12-33.44,12.12-40.58-4.12,6.86-5.51,20.29-19.13,40.03-3.58,5.19-10.62,11.86-19.53,19.13-6.71,5.48-19.27,6.43-26.54,13.29-21.87,20.64-55.97,37.52-65.55,41.94-9.35,4.31-13.5,18.84-20.72,21.96-6.68,2.88-32.39,8.64-34.3-2.54-2.37-13.86-2.93-45.32-1.53-61.89,1.08-12.75,11.39-13.58,24.91-17.95,3.12-1.01,6.41-2.21,9.79-3.78,9.68-4.52,17.22-16.71,24.71-21.03,21.24-12.26,88.88-47.94,88.88-47.94-16.87-1.48-81.9,39.05-90.51,44.08-11.8,6.9-18.03,13.78-24.56,15.16-17.36,3.66-26.14,7.66-32.74,12.49-2.37,1.74-4.97-12.48-5.39-27.82-.38-14.11,9.67-40.11,8.29-40.19-1-.06-10.26,18.33-13.67,30.14-.13.45-.82-.53-1.76-2.17-.94,1.64-1.63,2.61-1.76,2.17-3.4-11.82-12.66-30.2-13.67-30.14-1.38.08,8.67,26.08,8.29,40.19-.42,15.34-3.02,29.56-5.39,27.82-6.6-4.83-15.38-8.84-32.73-12.49-6.53-1.37-12.76-8.25-24.56-15.16-8.61-5.03-73.64-45.56-90.51-44.08,0,0,67.64,35.68,88.88,47.94,7.49,4.33,15.03,16.51,24.71,21.03,3.38,1.57,6.68,2.78,9.79,3.78,13.52,4.37,23.83,5.19,24.91,17.95,1.4,16.57.83,48.03-1.53,61.89-1.91,11.18-27.63,5.43-34.3,2.54-7.23-3.12-11.38-17.65-20.72-21.96-9.59-4.42-43.68-21.3-65.56-41.94-7.27-6.86-19.83-7.81-26.54-13.29-8.9-7.27-15.95-13.94-19.53-19.13-13.63-19.74-15.01-33.17-19.13-40.03,0,7.14-1.59,18.76,12.12,40.58,10.33,16.45,25.58,30.18,24.37,29.48-7.55-4.32-21.56-5.91-34.15-13.22-34.82-20.21-76.67-50.9-77.97-49.3-1.34,1.65,38.4,34.6,73.85,56.35,9.94,6.1,38.03,15.69,57.87,21.32,11.99,3.41,17.53,13.38,18.87,14.25,1.87,1.2-37.19-9.95-48.87-9.69-10.98.25-27.96-5.26-25.96-4.14,1.46.82,8.54,8.98,17.83,8.82,27.77-.47,37.94,13.25,60.82,13.71,21.3.43,35.2,15.53,36.37,16.34,10.12,6.98,17.22,19.84,26.2,24.97,18.81,10.72,42.47,9.21,42.53,12.19.5,24.24-5,55.95-8.51,82.29.57,16.89-14.92,3.02-36.61-19.85-4.88-5.14-16.54-7.17-21.92-13.36-3.75-4.31-9.19-5.95-13.3-10.38-1.77-1.92-14.03-15.87-29.4-23.8-19.76-10.18-43.64-14.77-46.25-17.06-22.18-19.45-48.73-37.61-72.53-40.22,14.09,8.03,59.94,32.38,62.45,43.66.91,4.08-15.52,3.16-25.21.78-3.66-1.31-16.82-2.86-20.92-5.51-42.77-27.6-57.03-26.39-70.68-28.04,10.97,3.61,53.69,19.24,62.26,29.66,3.4,4.14-4.49,5.71-34.04,5.71-12.15,0-79.23-.35-83.86.78-3.59.87,104.81,11.31,125.71,4.74,8.24-2.6,18.91-.68,30.59,1.83,5.65,1.21,23.44-.08,26.44,2.31,3.38,2.7,24.28,7.22,42.25,18.54,11.52,7.26,21.81,22.14,25.6,25.24,6.85,5.6,20.32,16.87,33.79,21.88,2.91,3.69,4.57,12.59,9.32,17.75,4.73,5.14-32.19-11.34-63.49-20.17-18.78-5.3-35.53-3.94-40.03-4.44-28.62-3.11-112.43-7.51-122.2-4.63-5.11,1.52,66.28,7.06,76.68,10.23,3.6,1.1-8.26,5.48-18.36,10.3-70.15,14.61-152.81,57.31-151.23,57.23,4.73-.22,118.85-41.98,122.43-41.98,2.79,0,7.87-1.53,8.58-.53,4.97,7.07-38.24,37.41-35.07,36.48,15.68-4.6,25.85-16.17,45.31-34.91,5.41-5.21,39.77-22.39,50.7-21.93,7,.3-17.77,13.11-10.68,10.34,16.44-6.43,48.69-10.69,74-2.15,15.7,5.29,25.87,23.79,36.66,24.71,36.51,3.1,55.5,9.68,57.46,46.81.98,18.49-.42,62.31-5.38,100.72-7.43,41.16-34.03,75.99-55.15,85.22-78.13,34.12-177.13-8.2-261.04,109.57-1.79,2.51,55.94-66.97,136.2-72.87.89.02-17.36,8.29-25.65,18.04-16.98,19.95-31.25,49.5-29.14,47.94,10.09-7.45,15.35-25.05,32.12-39.78,10.4-9.13,24.35-12.78,54.51-23.34,16.65-2.83,42.14-6.48,55.35-5.43,3.17.25-23.33,26.34-23.33,26.34,2.52,1.47,26.56-15.45,37.85-26.77,3.42-2.06,50.12-18.96,51.65-19.2,3.36-.53-11.64,11.82-31.23,25.04-6.2,4.18-15.54,1.91-22.22,5.89-9.66,5.75-16.68,17.43-25.13,20.81-9.15,3.64-24.06,7.73-40.96,13.49-2.88.98-46.13,5.87-49.11,6.95-3.83,1.4,32.55-.95,28.63.65-10.89,4.44-21.97,9.71-32.38,16.07-15.33,9.37-28.14,26.7-34.81,34.58-2.82,3.32,16.74-16.46,39.02-30.23,14.76-9.11,30.3-11.71,42.86-17.16,2.59-1.13,16.99-5.42,30-9.34,2.95-.89-27.73,22.67-25.07,21.86,2.66-.81,38.68-26,40.73-26.64,10.66-3.37,19.78-10.19,32.83-17.89,10.23-6.03,20.67-4.45,34.09-15.44,16.3-13.34,30.3-16.16,36.8-17.71,7.05-1.68-18.98,17.78-34.4,28.83-3.92,2.82-13.28,2.64-17.16,5.56-22.31,16.78-38.59,34.24-50.68,41.62-17.45,10.63-30.75,13.03-39.23,48.14-2.16,8.97,13.22-22.99,19.07-28.47,9.65-9.21,23.65-15.91,37.63-20.69,5.76-1.97,15.76-11.81,26.69-19.28,3.26-2.22,9.95-9.2,11.25-8.91,3.44.76-15.38,26.67-12.77,23.32,5.9-7.6,17-18.01,22.28-25.35,4.97-6.9,14.5-6.13,15.95-6.9,4.25-2.27,18.33-4.76,34.39-20.99,3.71-3.75-9.15,26.99-22.46,32.95-2.67,1.2-32.6,12.4-35.15,13.22-3.03.97,16.16-3.39,13.64-1.62-2.52,1.76-4.71,4.28-6.37,8.26-1.67,4.01-12.17,12.15-23.92,17.48-4.59,2.09-9.98,3.77-14.02,6.24-9.21,5.61-11.81,9.23-18.31,15.92-10,10.28-15.86,23.57-15.68,23.33,15.84-18.96,27.84-30.17,38.3-34.97,5.22-2.4,9.76-3.71,13.45-4.73,2.09-.57-12.97,13.55-11.46,13,1.52-.55,19.61-15.78,20.48-16.6,6.41-6.03,18.34-12.66,24.07-19.42,4.8-5.69,16.83-4.41,42.49-27.91,1.5-1.37-5.64,10.38-17.07,22.03-5.58,5.69-14.68,9.89-19.51,15.35-9.43,10.65-7.87,14.85-10.72,16.95,11.57-7.63,7.28-13.92,16.71-16.05,1.19-.27-3.27,5.85-4.52,8.45-.8,1.64,8.65-9.94,10.39-11.15,2.23-1.54,4.57-4.08,7.31-5.63,1.64-.93,1.96-3.42,3.51-4.67,1.46-1.17,4.53-1.48,5.91-2.72,4.95-4.47,9.47-7.14,12.79-7.94,1.73-.41,6.42-6.51,8.36-11.88.36,2.92,1.19,10.36.82,16.85-.29,5.04,1.18,9.71,1.08,12.48-.59,2.53-15.4,27.28-15.94,29.92-.7,3.4,15.91-22.43,15.33-18.89-1.6,9.85,2.39,11.59,2.69,21.91.38,12.66,2.11,25.46,2.28,37.38,2.3-10.28,2.13-24.95,2.51-37.6.3-10.32,3.39-34.28,1.79-44.14-.58-3.54,19.43,32.71,18.72,29.32-.55-2.64-16.58-34.13-17.17-36.66-.95-4.06.22-6.06.87-11.25,1.95,5.37,6.18,12.14,7.91,12.55,3.32.8,7.84,3.47,12.79,7.94,1.38,1.24,4.45,1.54,5.91,2.72,1.55,1.26,1.87,3.75,3.51,4.67,2.74,1.56,5.09,4.09,7.31,5.63,1.74,1.21,11.2,12.8,10.4,11.15-1.26-2.59-5.72-8.72-4.53-8.45,9.42,2.13,5.14,8.42,16.71,16.05-2.85-2.1-1.29-6.3-10.72-16.95-4.82-5.45-13.92-9.65-19.5-15.35-11.43-11.65-18.57-23.4-17.07-22.03,25.66,23.5,37.69,22.22,42.49,27.91,5.72,6.77,17.66,13.4,24.07,19.42.87.82,18.97,16.05,20.48,16.6,1.51.54-13.55-13.58-11.46-13,3.69,1.02,8.23,2.33,13.45,4.73,10.46,4.8,22.46,16.01,38.3,34.97.19.23-5.68-13.05-15.68-23.33-6.5-6.69-9.1-10.31-18.31-15.92-4.04-2.46-9.43-4.14-14.02-6.24-11.75-5.33-22.25-13.47-23.92-17.48-1.66-3.98-3.84-6.5-6.37-8.26-2.52-1.76,16.67,2.59,13.64,1.62-2.55-.82-32.48-12.02-35.15-13.22-13.31-5.96-26.16-36.7-22.46-32.95,16.06,16.23,30.14,18.72,34.39,20.99,1.45.77,10.99,0,15.95,6.9,5.29,7.34,16.38,17.76,22.28,25.35,2.61,3.35-16.2-22.56-12.77-23.32,1.3-.28,7.99,6.69,11.25,8.91,10.93,7.47,20.93,17.31,26.69,19.28,13.98,4.78,27.98,11.47,37.63,20.69,5.84,5.48,21.23,37.43,19.07,28.47-8.48-35.11-21.78-37.51-39.22-48.14-12.1-7.38-28.37-24.84-50.69-41.62-3.87-2.92-13.23-2.74-17.16-5.56-15.43-11.05-41.46-30.51-34.4-28.83,6.49,1.55,20.5,4.37,36.8,17.71,13.42,10.99,23.86,9.41,34.08,15.44,13.05,7.7,22.17,14.53,32.83,17.89,2.05.65,38.07,25.83,40.73,26.64,2.66.81-28.02-22.75-25.07-21.86,13.02,3.92,27.41,8.21,30,9.34,12.56,5.46,28.1,8.05,42.86,17.16,22.28,13.77,41.84,33.55,39.02,30.23-6.67-7.88-19.48-25.21-34.81-34.58-10.41-6.36-21.5-11.63-32.38-16.07-3.92-1.6,32.46.75,28.62-.65-2.98-1.09-46.23-5.98-49.11-6.95-16.9-5.76-31.81-9.85-40.96-13.49-8.45-3.38-15.48-15.06-25.13-20.81-6.68-3.97-16.02-1.71-22.22-5.89-19.59-13.22-34.58-25.57-31.22-25.04,1.53.24,48.23,17.14,51.65,19.2,11.29,11.32,35.33,28.24,37.85,26.77,0,0-26.5-26.09-23.33-26.34,13.21-1.05,38.7,2.6,55.35,5.43,30.17,10.56,44.11,14.21,54.51,23.34,16.77,14.73,22.03,32.33,32.12,39.78,2.11,1.56-12.16-27.99-29.14-47.94-8.29-9.74-26.54-18.01-25.65-18.04,80.26,5.9,137.99,75.38,136.2,72.87-83.91-117.77-182.91-75.45-261.04-109.57-21.12-9.23-47.73-44.06-55.15-85.22-4.96-38.42-6.36-82.23-5.38-100.72"/>
      </g>
    </g>
  </g>
</svg>